<?xml version="1.0" encoding="UTF-8"?>
<svg xmlns="http://www.w3.org/2000/svg" version="1.1" viewBox="0 0 300 300">
  <!-- Generator: Adobe Illustrator 29.6.1, SVG Export Plug-In . SVG Version: 2.1.1 Build 9)  -->
  <defs>
    <style>
      .st0 {
        fill: #009fd9;
      }

      .st1 {
        display: none;
      }
    </style>
  </defs>
  <g id="Layer_3" class="st1">
    <g>
      <path class="st0" d="M117.6,159.2c-3.5,2.3-6.4,5.2-7.1,9.3-.5,2.8,0,6.8,2.4,9.3,6.4,6.7,16.4,4,18.7-3.8,2.4-8.2-1.9-22.6-1.9-22.6l-12.1,7.8Z"/>
      <path class="st0" d="M245.3,98.6v8.5h-44.2c1.1-1.8,2.3-3.6,3.4-5.4.6.2,1.2.4,1.9.4s.3,0,.5,0c.7,0,1.1-.1,1.8-.5.8-.4,1.6-1.1,2.1-1.9l.7-1.1.7-1.1c2.8-4.6,4.3-7.6,6.9-12.3l.9-1.7c.2-.8.2-1.7,0-2.5-.3-1.3-1.2-2.4-2.3-3l-11.9-6.8,4.3-7.3c.7-1.2.9-2.5.5-3.8-.3-1.3-1.2-2.4-2.3-3l-3.8-2.2,18-31.9c0-.1.2-.3.2-.4.2-.5,1.4-3.4,1.2-7.2-.3-5.4-3.2-9.9-8.3-12.7-9.8-5.4-18,0-21,3.8-.2.2-.4.5-.5.7l-17.6,31.6-2.2-1.3c-2.4-1.4-5.4-.5-6.8,1.8l-4.2,7.4-12.6-7.2c-2.4-1.4-5.4-.6-6.8,1.8l-8.6,14.8c-.7,1.2-.9,2.5-.5,3.8.2.8.7,1.6,1.2,2.2l-1.8,2.7c-4.1,6.3-8.3,12.7-12.9,18.6l-8.4,10c-6.2,6.7-10.4,10.7-15.4,13.8-.2,0-.4,0-.6,0h-41.8v-8.5H3.6v201.1h51.7v-16h189.5v16h51.7V98.6h-51.2ZM202.3,12.4c1.1-1.1,4-3.4,8.2-1.1,4,2.2,3.3,5.5,2.8,6.9l-17.8,31.5-10.6-6.1,17.4-31.3ZM173.5,48.6l25.2,14.5-1.7,2.9-25.2-14.5,1.7-2.9ZM149.8,50.6l58.3,33.5-3.6,6.2-58.3-33.5,3.6-6.2ZM122.1,98.3c.8-.9,4.3-5.4,5.2-6.4,7.9-8.6,8.7-11.9,15.1-21.6l2-3.1,15.1,8.7-7.4,10.9s0,0,0,0c-2.2,3.1-8.6,11.9-12.4,14.8l6.2,5.3c5.5-4.2,11.9-13.9,12.9-15.4l8.3-11.4,7,4-8.1,11.8s0,0,0,0c-2.2,3.1-8.6,11.9-12.4,14.8l6.3,5.2c5.5-4.2,11.8-13.9,12.8-15.3l8.9-12.3,14.4,8.2c-4.9,8.2-7.4,13.3-13.8,21.2-2-1.9-4.7-1.6-6.2-1-.9.4-1.9,1-2.7,1.5-1.2.9-3.5,2.8-6.7,5.4-2.2,1.8-5,2.8-7.8,2.6-4.7-.2-7.9-3.1-7.9-3.1,1.1-9.6-6.7-12.2-6.7-12.2-5-1.7-11,.2-11,.2-12.5-1-11.6-10.1-10.9-13.1ZM50,213.4c-2.9,0-5.3,2.4-5.3,5.3v70.4H14.2V109.2h30v82.5c0,2.9,2.4,5.3,5.3,5.3s5.3-2.4,5.3-5.3v-74h34.7v155.4h-34.2v-54.4c0-2.9-2.4-5.3-5.3-5.3ZM285.9,289.1h-30.5v-70.4c0-2.9-2.4-5.3-5.3-5.3s-5.3,2.4-5.3,5.3v54.4h-6.5v-12.9c0-2.5-2-4.5-4.5-4.5s-4.5,2-4.5,4.5v12.9h-20.1v-30.8c0-2.9-2.3-5.2-5.2-5.2s-5.2,2.3-5.2,5.2v30.8h-43.8v-109.2c0-2.9-2.3-5.2-5.2-5.2s-5.2,2.3-5.2,5.2v109.2h-44.7V119.8c4.6,1.5,10.7,3.9,15.4,6l2.7,1.5c8.5,5.6,12.6,14.7,14.5,18.3,0,.2.2.3.3.5.2.4,5,7.5,15.2,10.1,0,0,4.6,1.4,8.5.6l1.6-.6c2-1.1,4.1-2.9,6.6-5.3.4-.4,1.1-1,1.3-1.2,5.9-4.8,10.7-10.1,14.7-14.7,1-1.2,2-2.3,3-3.5,2.6-3.3,6.7-8.9,10.2-13.6h4.7v106.5c0,2.9,2.3,5.2,5.2,5.2s5.2-2.3,5.2-5.2v-106.5h36.6v74c0,2.9,2.4,5.3,5.3,5.3s5.3-2.4,5.3-5.3v-82.5h30v179.9Z"/>
      <path class="st0" d="M21.1,126.2l-2.3,8.7h-.1c.4,0,3.9,1.5,3.6,8.2-.2,4.2-1.4,6.6-3.7,7.3-2.4.7-3.7,3.2-3,5.6.6,2,2.4,3.2,4.3,3.2s.9,0,1.3-.2c2.9-.9,9.6-4.1,10.1-15.5.6-14.3-9.7-17.1-10.2-17.2Z"/>
    </g>
  </g>
  <g id="Layer_2">
    <path class="st0" d="M299.4,127.4v-34h-21.1v-23.2c0-6.7-2.6-13-7.2-17.3-4.5-4.3-10.6-6.3-17.5-5.9-17,1-22.2,16.5-22.5,24.5v22h-22.7v-40.2c0-6.7-2.6-13-7.2-17.3-4.5-4.3-10.6-6.3-17.5-5.9-17,1-22.2,16.5-22.5,24.5v38.9h-22.3l.4-17.3-11.5-9.3-8.8,7.9-13.2-19.8-14.4,12.3v26.2h-22.6v-23.2c0-6.7-2.6-13-7.2-17.3-4.5-4.3-10.6-6.3-17.5-5.9-17,1-22.2,16.5-22.5,24.5v22H-.5v34h22.1v103.6H-.5v34h21.9v17.3c-.1,2,.6,3.9,2,5.3,1.4,1.4,3.2,2.1,5.1,2.1h33c4,0,7.3-3.3,7.3-7.4v-17.3h22.5v17.3c-.1,2,.6,3.9,2,5.3,1.4,1.4,3.2,2.1,5.1,2.1h33c4,0,7.3-3.3,7.3-7.4v-17.3h22.5v17.3c-.1,2,.6,3.9,2,5.3,1.4,1.4,3.2,2.1,5.1,2.1h33c4,0,7.3-3.3,7.3-7.4l-.7-17.3h23.2v17.3c-.1,2,.6,3.9,2,5.3,1.4,1.4,3.2,2.1,5.1,2.1h11.7l2.9-5,3.2,5h15.2c4,0,7.3-3.3,7.3-7.4v-17.3h21.1v-34h-21.1v-103.6h21.1ZM9.7,117.2v-13.5h11.8v13.5h-11.8ZM9.7,254.8v-13.5h11.8v13.5h-11.8ZM58.5,279.5h-27l.3-40.8V71.9c0-.6.4-4.1,2.1-7.6,2.3-4.5,5.8-6.8,10.8-7.1,4.1-.2,7.4.8,9.9,3.1,2.5,2.4,3.9,5.9,3.9,9.8v209.3ZM91.4,103.7v13.5h-22.6v-13.5h22.6ZM68.7,231v-103.6h22.6v103.6h-22.6ZM68.7,254.8v-13.5h22.6v13.5h-22.6ZM128.4,111.4v168h-12.9v-33.6h-8.2v33.6h-5.9l.3-40.8V72l2-1.7,13.4,20.1,11.1-10,.8.7-.7,30.4ZM138.6,231v-103.6h22.6v103.6h-22.6ZM161.3,103.7v13.5h-22.7v-5.6l.2-7.9h22.5ZM138.6,254.8v-13.5h22.6v13.5h-22.6ZM231.1,103.7v13.5h-22.7v-13.5h22.7ZM198.1,279.5h-26.9l.3-40.8V54.9c.1-1.9,1.4-13.9,12.9-14.6,1.7-.1,3.3,0,4.7.4h-2.4v21h8.2v-17.6c2.1,2.3,3.4,5.7,3.4,9.2v81.6l-10.4,5.1-4,14.6,5.3,10.6-4.9,21.9,11-.7,3.6,7.5-3.2,26.4,2.5,59.3ZM197.2,175.9l2.7-12.1-5.2-10.4,1.7-6.4,12-5.9v-13.8h22.6v103.6h-24.8l-.4-10.4,3.5-28.5-7.8-16.5-4.2.3ZM207.3,254.8l-.6-13.5h24.4v13.5h-23.8ZM268.1,279.5h-6.6l-9.2-14.5-8.5,14.5h-2.8l.3-40.8V71.9c0-.6.4-4.1,2.1-7.6,2.3-4.5,5.8-6.8,10.8-7.1,4.1-.2,7.4.8,9.9,3.1,2.5,2.4,3.9,5.9,3.9,9.8v209.3ZM289.1,103.7v13.5h-10.8v-13.5h10.8ZM289.1,241.3v13.5h-10.8v-13.5h10.8Z"/>
  </g>
  <metadata><?xpacket begin="﻿" id="W5M0MpCehiHzreSzNTczkc9d"?>
<x:xmpmeta xmlns:x="adobe:ns:meta/" x:xmptk="Adobe XMP Core 9.1-c003 1.000000, 0000/00/00-00:00:00        ">
   <rdf:RDF xmlns:rdf="http://www.w3.org/1999/02/22-rdf-syntax-ns#">
      <rdf:Description rdf:about=""
            xmlns:xmp="http://ns.adobe.com/xap/1.0/"
            xmlns:xmpGImg="http://ns.adobe.com/xap/1.0/g/img/"
            xmlns:xmpTPg="http://ns.adobe.com/xap/1.0/t/pg/"
            xmlns:stDim="http://ns.adobe.com/xap/1.0/sType/Dimensions#"
            xmlns:xmpG="http://ns.adobe.com/xap/1.0/g/"
            xmlns:illustrator="http://ns.adobe.com/illustrator/1.0/"
            xmlns:dc="http://purl.org/dc/elements/1.1/"
            xmlns:xmpMM="http://ns.adobe.com/xap/1.0/mm/"
            xmlns:stRef="http://ns.adobe.com/xap/1.0/sType/ResourceRef#"
            xmlns:stEvt="http://ns.adobe.com/xap/1.0/sType/ResourceEvent#">
         <xmp:CreatorTool>Adobe Illustrator 29.6 (Macintosh)</xmp:CreatorTool>
         <xmp:CreateDate>2025-07-25T15:27:11-07:00</xmp:CreateDate>
         <xmp:MetadataDate>2025-07-25T15:27:11-07:00</xmp:MetadataDate>
         <xmp:ModifyDate>2025-07-25T15:27:11-07:00</xmp:ModifyDate>
         <xmp:Thumbnails>
            <rdf:Alt>
               <rdf:li rdf:parseType="Resource">
                  <xmpGImg:width>256</xmpGImg:width>
                  <xmpGImg:height>224</xmpGImg:height>
                  <xmpGImg:format>JPEG</xmpGImg:format>
                  <xmpGImg:image>/9j/4AAQSkZJRgABAgEAAAAAAAD/7QAsUGhvdG9zaG9wIDMuMAA4QklNA+0AAAAAABAAAAAAAAEA&#xA;AQAAAAAAAQAB/+4ADkFkb2JlAGTAAAAAAf/bAIQABgQEBAUEBgUFBgkGBQYJCwgGBggLDAoKCwoK&#xA;DBAMDAwMDAwQDA4PEA8ODBMTFBQTExwbGxscHx8fHx8fHx8fHwEHBwcNDA0YEBAYGhURFRofHx8f&#xA;Hx8fHx8fHx8fHx8fHx8fHx8fHx8fHx8fHx8fHx8fHx8fHx8fHx8fHx8fHx8f/8AAEQgA4AEAAwER&#xA;AAIRAQMRAf/EAaIAAAAHAQEBAQEAAAAAAAAAAAQFAwIGAQAHCAkKCwEAAgIDAQEBAQEAAAAAAAAA&#xA;AQACAwQFBgcICQoLEAACAQMDAgQCBgcDBAIGAnMBAgMRBAAFIRIxQVEGE2EicYEUMpGhBxWxQiPB&#xA;UtHhMxZi8CRygvElQzRTkqKyY3PCNUQnk6OzNhdUZHTD0uIIJoMJChgZhJRFRqS0VtNVKBry4/PE&#xA;1OT0ZXWFlaW1xdXl9WZ2hpamtsbW5vY3R1dnd4eXp7fH1+f3OEhYaHiImKi4yNjo+Ck5SVlpeYmZ&#xA;qbnJ2en5KjpKWmp6ipqqusra6voRAAICAQIDBQUEBQYECAMDbQEAAhEDBCESMUEFURNhIgZxgZEy&#xA;obHwFMHR4SNCFVJicvEzJDRDghaSUyWiY7LCB3PSNeJEgxdUkwgJChgZJjZFGidkdFU38qOzwygp&#xA;0+PzhJSktMTU5PRldYWVpbXF1eX1RlZmdoaWprbG1ub2R1dnd4eXp7fH1+f3OEhYaHiImKi4yNjo&#xA;+DlJWWl5iZmpucnZ6fkqOkpaanqKmqq6ytrq+v/aAAwDAQACEQMRAD8A9U4q7FXYq7FXYq7FXYq7&#xA;FXYq7FXYq7FXYq7FXYq7FXYqp3FxBbQSXE7iOGJS8kjGgVQKknDGJJoc0SkIizyeP+afzR1W/meD&#xA;SHaxsQaCRdpn9y37HyX7832n7OjEXPc/Y87qu05zNQ9MftYVNPPO5kmkaWQ9Xdix+85sAAOTrDIn&#xA;miNP1jVdOkEljdy27D/fbkA/MdD9ORnijP6hbPHmnD6SQ9U8ifmP+lZU0zVuMd+20E6jisp/lI6K&#xA;/wCB9s0us0HAOKP0/c77Q9o+IeGf1fez3NY7V2KuxV2KuxV2KuxV2KuxV2KuxV2KuxVxIAJJoB1O&#xA;KpNdecvK1q5SbVLcOv2lVw5FO3wcsyI6XLLlEuNLWYo85BUsvNXly+kEVrqVvJKxosfMKxPsrUJy&#xA;M9NkjuYllDVY5bCQTXKW92KuxV2KuxV2KuxV2KuxV2KuxV5t+cGvPHDbaJC1PWH1i6p3QEiNfkWB&#xA;P0DNv2XhsmZ9wdL2tnoCA67lg/lDyxP5h1ZbRGMcEY9S5mpXigNNv8o9Bmx1WoGKN9XWaTTHNOun&#xA;V7BD5J8q2OnvHFpsEpWM/vZ0WVyQOvJwfwzQnV5ZS3kXohosUY0Ij47vCrGzlvb63s4aCW5lSGMt&#xA;sOUjBRX6TnSTkIgk9HloQMpCI6rSJ7W4p8UVxA/yZXQ/rBGHYjyKN4nzD6E8r6udX0Cy1BqepNH+&#xA;9p09RCUf/hlOctqMXBMxeu02XxMYl3pplLe7FXYqgdQ1zRtO2vr2G2alQkjqGI9lrU5ZDDOf0glq&#xA;yZ4Q+ogICLzz5RkfguqwA1pViUH3sAMtOjyj+EtQ1uE/xBOoLiC4iWWCRZYm+zIjBlPyI2zHMSDR&#xA;cmMgRYX4EuxV2KuxV2KqN7e21laTXd04jt4FLyOewGShAyNDmWM5iIJPIPDvNvnrVdeneNXa300G&#xA;kVqppyHjIR9o/gM6PTaOOId8u95fVa6eU90e79bHre1urhuNvC8zfyxqWO/yBzKlIDmXEjEnkLWy&#xA;wzQvwmjaN+vFwVP3HEEHkggjmzTyP+Yd5pdxHY6nK0+luQgdvieGv7QPUr4j7vA6/V6ETHFHaX3u&#xA;y0XaEoHhlvH7nsqsrKGUhlYVBG4IOaB6RvFXYq4kAEk0A6nFUs0nzJo2rXF1BYXCzSWbBZadDX9p&#xA;T+0tdqjLsmCcADIc2jFqIZCRE3SZ5S3uxV2KuxV2KvDfzPmd/Ol6rGoiWFE9gYVb9bHOj7PFYR8f&#xA;veX7SN5z8PuZj+TVrGuiX10B+9lufSY/5McasPxkOYHasvWB5Ox7IiOAnz/H3s8uv95Zv9Rv1HNb&#xA;HmHay5F89+Vv+Um0j/mNt/8Ak6udRqP7uX9U/c8jpf72P9YfeiPO6Inm3VQooDcM1Pdtz+JyOkP7&#xA;qPuZ60Vml73qP5UsT5QiBNQJpQPYcq5pu0v734O87L/uR7yzDMB2LsVecfmJ+YU1lM+j6PJwuE2u&#xA;7teqEj+7T/K8T2+ebbQ6ISHHPl0Dpu0NeYnghz6l5YzSzSlmLSSyGpJqzMT+JObnYB0W5KrNYX0C&#xA;epNbyxIejujKPDqRgE4nkWRhIcwUZoXmPV9DuhPYTlBWskJqYnHg6dD8+uV5sEMgqQbMGoniNxL3&#xA;Pyx5itNf0qO+gHB68J4a1Mcg6r/EHOc1GA4pcJeo02oGWHEE2yhyHYq7FXYq84/OLWXitLTSImp9&#xA;YJnuAO6IaIPkWqfozbdl4rJmejpu181AQHXdhHkry1/iDXEtHJW0jUy3Tr14KQOIPixIGbHV6jwo&#xA;X16Os0em8WddOr3eysbOxtktrOFIIE2WNBQf7fvnNTmZGybL1MIRiKiKChrGiabrFm9pfwrLGwPF&#xA;iPiQ/wAyN1ByWLLLGbiWObDHJGpB8/a5pU2k6tdadKavbOVDdOS9Vb/ZKQc6jDkE4iQ6vJZ8RxzM&#xA;T0eyfllqsmoeVIBKxaSzdrYsepCAMn3IwGaDtDHw5TXXd6Ps3KZ4hfTZleYTnqdzcwW0ElxcSLFB&#xA;EpaSRjQKB1JOGMSTQ5sZSERZ5PH/ADx+Y1xqxk0/TGaDTN1kk6PN8+6p7d+/hm+0ehEPVLeX3PPa&#xA;3tA5PTHaP3sa8t69daHq8OoQVIQ8Zoq0Dxn7Sn+HvmXnwjJExLhafOcUxIPoHT7+11CyhvbV/Ut5&#xA;1Dxt7HsfcdDnLzgYkg8w9bjmJxEhyKuzopUMwBc0UE0qaVoPoGRplbeKXYq7FXhX5l/8ptqX/PH/&#xA;AKh486TQf3Mfj95eW7S/v5fD7gzr8nP+UZuv+Y1/+TUWa3tT+8H9X9Jdp2R/dH+t+gM5kQSRsh2D&#xA;AqT8xTNcDTtCLYTp35T6NY6hbXsd5ctJaypMitwoTGwYA0Xptmwn2lOUSKG7rcfZcIyEgTsXnHnr&#xA;/lLtU/4zn9QzbaP+6j7nS67++l73p35Uf8ojH/xnl/WM0/aX978Hedl/3PxLMcwHYpd5i1QaVod7&#xA;qG3K3iZowehc7ID82Iy3Bj45iPe06jL4cDLuD53dpricsxMk8zEk9WZ2P6yTnVCgPJ48kk+Ze7+T&#xA;vJ1hoFhETEr6m61ubkircj1RD2UdNuuc3qtVLLL+i9VpNJHFH+l1LIXRHQo6hkYUZSKgg9iDmIC5&#xA;hFvHfzP8o2ukXUOoWCCKzvCVkhH2Y5Rv8PgrDt2pm/7P1JmDGXMPOdpaQYyJR5H72vyj1R7bzE9g&#xA;T+6vomHH/iyIF1P/AAPLHtPHePi7l7Ky1k4f5w+57JmgejdirsVdirxn83mJ81RgmoW1jA+XNz/H&#xA;N/2Z/dfF5vtb+9+H606/JaJPT1aWn7ysK8vajnMftU/SPe5PY42kfc9MzUO7dirw780QP8Z3fukN&#xA;f+RS50fZ39yPi8v2n/fH4fczL8mv+OFe/wDMV/zLXMDtX6x7nZdkf3Z97P8ANW7Zjv5h/wDKG6n/&#xA;AKif8nFzL0P99Fw+0P7mX46vDNPtRd39taluAuJUiL0rTmwWtPpzo5y4Yk9zy+OPFIDvKd+d/KUn&#xA;l3UxHGWksJxytZmpXb7SNSg5KfwzG0mp8WP9Ic3J1ul8GVfwnkmfkHz6mgw3Nnfh5LJlaW3Vd2WU&#xA;D7I9n/A/TlWt0fikGPNv0Gu8IGMvp/SknmPzbq2uakt5NI0KwtWzhjJAiFagqRQ8tt2zIwaaOOND&#xA;4+bi6jVTyy4j05eTPfI/5mpdmLTdbYJdEhILzosh6ASfyt79Dms1fZ/D6ocu522i7S4vTPn3vRc1&#xA;TuHYq8K/Mv8A5TbUv+eP/UPHnSaD+5j8fvLy3aX9/L4fcGdfk5/yjN1/zGv/AMmos1van94P6v6S&#xA;7Tsj+6P9b9AZ3mtdq7FXgHnr/lLtU/4zn9Qzp9H/AHUfc8lrv76XvenflR/yiMf/ABnl/WM0/aX9&#xA;78Hedl/3PxLMcwHYsR/NSRk8nzqOkksSt8ufL9a5ndnD96Pi6/tQ/uT7w8q8mQRz+atKjkFV+sIx&#xA;H+oeQ/Vm61RrFL3Oh0cbyx976Dzl3rnYqwj83lU+VYyRut3GR8+Dj+ObHsz+9+DrO1v7r4/reefl&#xA;2xHnPTCDQ83H0GJwc2mu/uZfjq6fs/8Avo/jo96zmnq3Yq7FXYq8Y/N3/lKk/wCYWP8A4k+dB2Z/&#xA;dfF5vtb+9+Cffkt/vLqv+vD+p8xu1ecfi5XY/KXwek5qHdOxV4d+aP8AymV3/qQ/8m1zo+zv7kfF&#xA;5jtP++Pw+5mX5Nf8cK9/5iv+Za5gdq/WPc7Hsj+7PvZ/mrdsx38w/wDlDdT/ANRP+Ti5l6H++i4f&#xA;aH9zL8dXiegf8d3Tv+YqH/k4udDm+iXuLzOD+8j7w9480eXrbXtHlsZaLIfjtpT+xKPst8ux9s5r&#xA;T5zinxB6rU6cZYGJ+D5+vLO4sruW0uUMc8DFJEPYg0zp4SEhY5F5KcDEkHmGQWXki+fy3ea9eMba&#xA;2ijD2sZHxSkkAHfou+3jmNPVxGQQG56uXDRSOI5JbDp5pJpQJ1SzAFSZ46D/AGYzIyfSfc42L6x7&#xA;30lnJPZuxV4V+Zf/ACm2pf8APH/qHjzpNB/cx+P3l5btL+/l8PuDOvyc/wCUZuv+Y1/+TUWa3tT+&#xA;8H9X9Jdp2R/dH+t+gM7zWu1dirwDz1/yl2qf8Zz+oZ0+j/uo+55LXf30ve9O/Kj/AJRGP/jPL+sZ&#xA;p+0v734O87L/ALn4lmOYDsWHfmv/AMojJ/xni/Wcz+zf734Ou7U/ufiHmPkX/lLtL/4zj9Rzcaz+&#xA;6l7nR6H++j73v+cw9a7FWE/m7/yiqf8AMVH/AMRfNj2Z/e/B1na3918Xnf5ef8plpn+u/wDybbNr&#xA;rv7mTp+z/wC+j+Oj3rOZerdirGP+Vl+Sf+rl/wAkbj/qnmZ+QzfzftH63B/lLB/O+w/qd/ysvyT/&#xA;ANXL/kjcf9U8fyGb+b9o/Wv8pYP532H9TzL8xta0zWPMC3enTevbiBIy/F0+IMxIo4U983GhxSx4&#xA;6kKNuk7QzRyZLibFMr/Jb/eXVf8AXh/U+YXavOPxc/sflL4PSc1DunYq8O/NH/lMrv8A1If+Ta50&#xA;fZ39yPi8x2n/AHx+H3J1+Wnm3y/ouk3UGp3X1eWSf1EX05HqvBRWqKw6jMfX6bJkkDEXs5PZuqx4&#xA;4ESNb+bMP+Vl+Sf+rl/yRuP+qeYH5DN/N+0frdh/KWD+d9h/UkvnLz35V1HyzfWVnferczKojj9K&#xA;ZakOpO7IB0HjmRpdHlhkBI2+DjazXYp4jGJ3PkXmWgf8d3Tv+YqH/k4ubjN9EvcXSYP7yPvD6Ozk&#xA;3skg1PyToepa5BrF1GXmiWjxbenIV+w0g78fx28MycernCBgHEyaLHPIJnmp/mEAPJmpACgEaUH/&#xA;AD0XJaH++ijX/wBzJ4hpE8Vvq1lPM3GKGeKSRqE0VXBJoN+mdFlBMSB3PMYpATBPeHtf/Ky/JP8A&#xA;1cv+SNx/1TznvyGb+b9o/W9L/KWD+d9h/U7/AJWX5J/6uX/JG4/6p4/kM3837R+tf5SwfzvsP6nk&#xA;/nnU7HU/NN7fWMnrWs3penJxZa8YUU7MFPVT2zd6PGYYxGXP9roNbkjPKZR5bfc9E/Jz/lGbr/mN&#xA;f/k1Fmq7U/vB/V/SXcdkf3R/rfoDO81rtXYq8A89f8pdqn/Gc/qGdPo/7qPueS1399L3sz/L7zp5&#xA;a0ny4lnqF56FyJZGKenK+zHbdEYZr9bpMk8lxFj4Oy0GsxY8fDI0b82S/wDKy/JP/Vy/5I3H/VPM&#xA;T8hm/m/aP1ub/KWD+d9h/Uxr8wfOnlrVvLj2en3nr3JljYJ6cqbKd93RRmXotJkhkuQofBwtfrMW&#xA;THwxNm/NhnkX/lLtL/4zj9RzYaz+6l7nW6H++j73v+cw9a7FWE/m7/yiqf8AMVH/AMRfNj2Z/e/B&#xA;1na3918XmXk3ULPTvM1je3knpW0LMZJKM1AUYdFBPU+GbfVQM8ZA5uk0eQQyiUuQeuf8rL8k/wDV&#xA;y/5I3H/VPNH+QzfzftH63oP5SwfzvsP6nf8AKy/JP/Vy/wCSNx/1Tx/IZv5v2j9a/wApYP532H9T&#xA;wnOkeWTKPy15jkjWSPSrx43AZHW3lIIO4IIXcHKjqMY/iHzDcNNkO4jL5FCXlje2Uvo3lvJbTUDe&#xA;nMjRtQ9DRgDTJxmJCwbYThKJqQp6b+S3+8uq/wCvD+p81HavOPxd12Pyl8HpOah3TsVeHfmj/wAp&#xA;ld/6kP8AybXOj7O/uR8XmO0/74/D7mP2Wj6vfRtJZWNxdRqeLPDE8gB60JUHfMqeWEeZAcOGGct4&#xA;gn4Ij/C3mb/q0Xv/AEjy/wDNOQ/MY/50fmGf5XL/ADZfIqdx5f162hae5026ggTd5ZIJERamm7Mo&#xA;AyUc8CaEgT70SwZIizEge5rQP+O7p3/MVD/ycXHN9EvcUYP7yPvD6Ozk3snYqxn8yXZfJWpEdaRD&#xA;6DOgOZmgH76Px+5wu0T+4l8PvDwuKKWaVIokaSWRgkcaAszMxoAANySc6MkAWXlgCTQTH/C3mb/q&#xA;0Xv/AEjy/wDNOVfmMf8AOj8w3flcv82XyLv8LeZv+rRe/wDSPL/zTj+Yx/zo/ML+Vy/zZfIoC5tb&#xA;q1na3uoXgnSnOKVSjioqKqwBFQa5bGQkLBsNUomJoii9d/Jz/lGbr/mNf/k1Fmi7U/vB/V/SXoOy&#xA;P7o/1v0Bnea12rsVeAeev+Uu1T/jOf1DOn0f91H3PJa7++l70vtND1q8hE1pp9zcwkkCWKGR1qOo&#xA;5KCMtlmhE0SB8WqGCchYiSPcrf4W8zf9Wi9/6R5f+acj+Yx/zo/MMvyuX+bL5FRu9D1qzhM13p9z&#xA;bQggGWWGRFqeg5MAMlHNCRoEH4sZ4JxFmJA9yYeRf+Uu0v8A4zj9RyrWf3Uvc26H++j73v8AnMPW&#xA;uxVhP5u/8oqn/MVH/wARfNj2Z/e/B1na3918XjtvbXFzMsFtE8877JFGpd2oK7KtSc30pACzsHnY&#xA;xMjQFlGy+W/MUMTyy6XdxxRqXkkeCVVVVFSSStAAMrGfGTQkPm2HT5ALMZfIpblrS7FX0foH/HC0&#xA;7/mFh/5NrnKZvrl7y9lg/u4+4PJvzd/5SpP+YWP/AIk+bvsz+6+LoO1v734J9+S3+8uq/wCvD+p8&#xA;xu1ecfi5XY/KXwek5qHdOxV4d+aP/KZXf+pD/wAm1zo+zv7kfF5jtP8Avj8PuZl+TX/HCvf+Yr/m&#xA;WuYHav1j3Ox7I/uz72f5q3bMd/MP/lDdT/1E/wCTi5l6H++i4faH9zL8dXiegf8AHd07/mKh/wCT&#xA;i50Ob6Je4vM4P7yPvD6Ozk3snYqxj8y/+UJ1L/nj/wBREeZmg/vo/H7i4PaX9xL4feHjvlb/AJSb&#xA;SP8AmNt/+Tq5vtR/dy/qn7nndL/ex/rD730TnKvYOxV4V+Zf/Kbal/zx/wCoePOk0H9zH4/eXlu0&#xA;v7+Xw+4M6/Jz/lGbr/mNf/k1Fmt7U/vB/V/SXadkf3R/rfoDO81rtXYq8A89f8pdqn/Gc/qGdPo/&#xA;7qPueS1399L3vTvyo/5RGP8A4zy/rGaftL+9+DvOy/7n4lmOYDsWHfmv/wAojJ/xni/Wcz+zf734&#xA;Ou7U/ufiHmPkX/lLtL/4zj9Rzcaz+6l7nR6H++j73v8AnMPWuxVhP5u/8oqn/MVH/wARfNj2Z/e/&#xA;B1na3918Xnf5ef8AKZaZ/rv/AMm2za67+5k6fs/++j+Oj2fzT/yjOr/8wVx/yabOf0/95H+sPvek&#xA;1X91L+qfufOudU8e7FWUW35lebre3it4rpBFCixxj0ozRVFBuR4DMOWgxE2Q50e0cwFA8vJJta1z&#xA;UdavBeahIJJwgjDBQo4qSRsoHjmRiwxxio8nGzZ5ZDcub0X8lv8AeXVf9eH9T5qu1ecfi7jsflL4&#xA;PSc1DunYq8O/NH/lMrv/AFIf+Ta50fZ39yPi8x2n/fH4fcl2h+cNe0O3kt9OmWKKV/UcMiPVqAdW&#xA;B7DLc2lhkNyDRg1eTEKiUx/5Wj5y/wCWtP8AkTH/AM05V/J2Hu+1v/lPN3/YENqfn/zPqVjLY3dy&#xA;j204AkURopIBB6gV6jJ49FjhLiA3DXk1+WcTEnYpXoH/AB3dO/5iof8Ak4uXZvol7i0YP7yPvD6O&#xA;zk3snYqxj8y/+UJ1L/nj/wBREeZmg/vo/H7i4PaX9xL4feHh9pdTWl3DdwHjPbyLLExANHQhlND7&#xA;jOjlESBB5F5iEjEgjmGTf8rR85f8taf8iY/+acw/5Ow932ud/Kebv+wO/wCVo+cv+WtP+RMf/NOP&#xA;8nYe77V/lPN3/YGParql7qt/Lf3riS5m4+o4AUHioQbCg6KMyseMQjwjk4eXLLJIylzL1f8AJz/l&#xA;Gbr/AJjX/wCTUWaTtT+8H9X9Jd92R/dH+t+gM7zWu1dirwDz1/yl2qf8Zz+oZ0+j/uo+55LXf30v&#xA;e3o/njzHo9kLKwuFjtwxcKY0Y1bruwJxy6THkNyG6cOtyY48MTsjf+Vo+cv+WtP+RMf/ADTlf8nY&#xA;e77W3+U83f8AYEFrHnjzHrFkbK/uFktywcqI0U1XpuoByzFpMeM3EbtWbW5MkeGR2a8i/wDKXaX/&#xA;AMZx+o46z+6l7kaH++j73v8AnMPWuxVhP5u/8oqn/MVH/wARfNj2Z/e/B1na3918XkWmald6bfRX&#xA;1owS5gJMbEBgCQR0O3Q5vMmMTjwnkXn8eQwkJDmE9u/zH82XdpNaT3SNBcRtFKoijFUcFWFQPA5j&#xA;R0GKJBA3DlT7RzSBBOx8mMZmOC9e/wCVNaF/y23X/JP/AJpzR/yrPuD0P8kY+8u/5U1oX/Lbdf8A&#xA;JP8A5px/lWfcF/kjH3lgPnfy5a+X9ZWwtpXljMKS8pKcqsWFPhA/lzZaTOcsOI97qdbpxinwjuZp&#xA;+S3+8uq/68P6nzA7V5x+Lsux+Uvg9JzUO6dirw780f8AlMrv/Uh/5NrnR9nf3I+LzHaf98fh9yM8&#xA;h+Q9O8xadcXV1cTQvDN6SrFxoRxDVPIHxyvWayWKQAA5Nmh0Mc0SSTzZN/yprQv+W26/5J/805if&#xA;yrPuDm/yRj7ylXmj8sNJ0jQbvUYLq4klt1VlR+HE1cLvRQe+XaftCU5iJA3aNT2bDHjMgTswXQP+&#xA;O7p3/MVD/wAnFzZZvol7i6rB/eR94fR2cm9k7FWMfmX/AMoTqX/PH/qIjzM0H99H4/cXB7S/uJfD&#xA;7w8V0eyjvtXsbKRisd1cRQuy9QJHCkivffOhyz4YE9weaww4piJ6kPUv+VNaF/y23X/JP/mnNN/K&#xA;s+4O9/kjH3l3/KmtC/5bbr/kn/zTj/Ks+4L/ACRj7y85826NBovmC60yB2kit/T4vJTkecaua0AH&#xA;Vs2umynJjEj1dNqsIx5DEdP1PSvyc/5Rm6/5jX/5NRZqO1P7wf1f0l3XZH90f636AzvNa7V2KvAP&#xA;PX/KXap/xnP6hnT6P+6j7nktd/fS97IvJf5daXr2hrqFxczxStI6FI+HGin3U5i6vXSxz4QA5uj7&#xA;PhlhxElPv+VNaF/y23X/ACT/AOacxv5Vn3Byv5Ix95SHzp+XWl6Dobahb3M8sqyIgSThxox9lGZO&#xA;k10sk+EgOLrOz4YocQJY75F/5S7S/wDjOP1HMrWf3Uvc4Wh/vo+97/nMPWuxVhP5u/8AKKp/zFR/&#xA;8RfNj2Z/e/B1na3918XlvlfSYdX16006d2jiuGZWdKchRC21QR2zc6jKYQMh0dFpsQyZBE9XpP8A&#xA;yprQv+W26/5J/wDNOan+VZ9wd1/JGPvLv+VNaF/y23X/ACT/AOacf5Vn3Bf5Ix95Z/mrds7FXjH5&#xA;u/8AKVJ/zCx/8SfOg7M/uvi832t/e/BPvyW/3l1X/Xh/U+Y3avOPxcrsflL4PSc1DunYq8O/NH/l&#xA;Mrv/AFIf+Ta50fZ39yPi8x2n/fH4fczL8mv+OFe/8xX/ADLXMDtX6x7nY9kf3Z97P81btmO/mH/y&#xA;hup/6if8nFzL0P8AfRcPtD+5l+OrxPQP+O7p3/MVD/ycXOhzfRL3F5nB/eR94fR2cm9k7FWMfmX/&#xA;AMoTqX/PH/qIjzM0H99H4/cXB7S/uJfD7w8d8rf8pNpH/Mbb/wDJ1c32o/u5f1T9zzul/vY/1h97&#xA;6JzlXsHYq8K/Mv8A5TbUv+eP/UPHnSaD+5j8fvLy3aX9/L4fcGdfk5/yjN1/zGv/AMmos1van94P&#xA;6v6S7Tsj+6P9b9AZ3mtdq818y/m4sTyWuiQcnUlTeTfZqNqog6/Mn6M2+n7MveZ+DpdT2rW0B8S8&#xA;zvb25vbuW7upDLcTMXlkIAqT7CgzbwgIihydJOZkbPMvZ/yrjkTyjDzUrylkZagioJ2I9s5/tE/v&#xA;S9J2WKwj3svzBdiw781/+URk/wCM8X6zmf2b/e/B13an9z8Q8x8i/wDKXaX/AMZx+o5uNZ/dS9zo&#xA;9D/fR973/OYetdirCfzd/wCUVT/mKj/4i+bHsz+9+DrO1v7r4vO/y8/5TLTP9d/+TbZtdd/cydP2&#xA;f/fR/HR71nMvVuxV2KuxV4x+bv8AylSf8wsf/EnzoOzP7r4vN9rf3vwT78lv95dV/wBeH9T5jdq8&#xA;4/Fyux+Uvg9JzUO6dirw780f+Uyu/wDUh/5NrnR9nf3I+LzHaf8AfH4fczL8mv8AjhXv/MV/zLXM&#xA;DtX6x7nY9kf3Z97P81btmO/mH/yhup/6if8AJxcy9D/fRcPtD+5l+OrxPQP+O7p3/MVD/wAnFzoc&#xA;30S9xeZwf3kfeH0dnJvZOxVjH5l/8oTqX/PH/qIjzM0H99H4/cXB7S/uJfD7w8d8rf8AKTaR/wAx&#xA;tv8A8nVzfaj+7l/VP3PO6X+9j/WH3vonOVewdirwr8y/+U21L/nj/wBQ8edJoP7mPx+8vLdpf38v&#xA;h9wZ1+Tn/KM3X/Ma/wDyaizW9qf3g/q/pLtOyP7o/wBb9AZP5p1L9G+XdQvQeLxQsIz/AMWP8Cf8&#xA;MwzD0+PjyAebnarJwY5S8nzzFFJNKkUY5SSMFRfEsaAZ1JNC3kALNB7d5d/Lby/pISWZPr94KH1Z&#xA;gCin/Ij6D6anOez6+c9hsHptP2djx7n1FlgAAoOmYLsHYqw781/+URk/4zxfrOZ/Zv8Ae/B13an9&#xA;z8Q8x8i/8pdpf/GcfqObjWf3Uvc6PQ/30fe9/wA5h612KsJ/N3/lFU/5io/+Ivmx7M/vfg6ztb+6&#xA;+Lzv8vP+Uy0z/Xf/AJNtm1139zJ0/Z/99H8dHvWcy9W7FXYq7FXjH5u/8pUn/MLH/wASfOg7M/uv&#xA;i832t/e/BPvyW/3l1X/Xh/U+Y3avOPxcrsflL4PSc1DunYq8O/NH/lMrv/Uh/wCTa50fZ39yPi8x&#xA;2n/fH4fczL8mv+OFe/8AMV/zLXMDtX6x7nY9kf3Z97P81btmO/mH/wAobqf+on/Jxcy9D/fRcPtD&#xA;+5l+OrxPQP8Aju6d/wAxUP8AycXOhzfRL3F5nB/eR94fR2cm9k7FWMfmX/yhOpf88f8AqIjzM0H9&#xA;9H4/cXB7S/uJfD7w8d8rf8pNpH/Mbb/8nVzfaj+7l/VP3PO6X+9j/WH3vonOVewdirwr8y/+U21L&#xA;/nj/ANQ8edJoP7mPx+8vLdpf38vh9wZ1+Tn/ACjN1/zGv/yaizW9qf3g/q/pLtOyP7o/1v0BOvP2&#xA;kXGqeV7u3tifWjpMsY/b9M8in0jp70zH0WUQyAlydfiM8RA583hNndS2l3BdRU9W3kWWOoqOSMGF&#xA;R8xnSSiJAg9XloSMSCOj6M0jUrfU9MttQtzWK5QOB4H9pT7qag5ymXGYSMT0exxZBOIkOqLyDY7F&#xA;WHfmv/yiMn/GeL9ZzP7N/vfg67tT+5+IeY+Rf+Uu0v8A4zj9Rzcaz+6l7nR6H++j73v+cw9a7FWE&#xA;/m7/AMoqn/MVH/xF82PZn978HWdrf3Xxed/l5/ymWmf67/8AJts2uu/uZOn7P/vo/jo96zmXq3Yq&#xA;7FXYq8Y/N3/lKk/5hY/+JPnQdmf3Xxeb7W/vfgn35Lf7y6r/AK8P6nzG7V5x+Lldj8pfB6Tmod07&#xA;FXh35o/8pld/6kP/ACbXOj7O/uR8XmO0/wC+Pw+5mX5Nf8cK9/5iv+Za5gdq/WPc7Hsj+7PvZ/mr&#xA;dsx38w/+UN1P/UT/AJOLmXof76Lh9of3Mvx1eJ6B/wAd3Tv+YqH/AJOLnQ5vol7i8zg/vI+8Po7O&#xA;TeydirGPzL/5QnUv+eP/AFER5maD++j8fuLg9pf3Evh94eO+Vv8AlJtI/wCY23/5Orm+1H93L+qf&#xA;ued0v97H+sPvfROcq9g7FXhX5l/8ptqX/PH/AKh486TQf3Mfj95eW7S/v5fD7gzr8nP+UZuv+Y1/&#xA;+TUWa3tT+8H9X9Jdp2R/dH+t+gM7zWu1fO/mqOzj8yalHZrxt0uJFRewIajU9uVaZ1WmJOON86eQ&#xA;1QAyyA5W9U/KWGdPKnORiyS3EjQKeiqKKaf7JWzS9pEHL8He9lAjFv3s0zXuydirDvzX/wCURk/4&#xA;zxfrOZ/Zv978HXdqf3PxDzHyL/yl2l/8Zx+o5uNZ/dS9zo9D/fR973/OYetdirCfzd/5RVP+YqP/&#xA;AIi+bHsz+9+DrO1v7r4vO/y8/wCUy0z/AF3/AOTbZtdd/cydP2f/AH0fx0e9ZzL1bsVdirsVeMfm&#xA;7/ylSf8AMLH/AMSfOg7M/uvi832t/e/BPvyW/wB5dV/14f1PmN2rzj8XK7H5S+D0nNQ7p2KvDvzR&#xA;/wCUyu/9SH/k2udH2d/cj4vMdp/3x+H3My/Jr/jhXv8AzFf8y1zA7V+se52PZH92fez/ADVu2Y7+&#xA;Yf8Ayhup/wCon/Jxcy9D/fRcPtD+5l+OrxPQP+O7p3/MVD/ycXOhzfRL3F5nB/eR94fR2cm9k7FW&#xA;MfmX/wAoTqX/ADx/6iI8zNB/fR+P3Fwe0v7iXw+8PHfK3/KTaR/zG2//ACdXN9qP7uX9U/c87pf7&#xA;2P8AWH3vonOVewdirwr8y/8AlNtS/wCeP/UPHnSaD+5j8fvLy3aX9/L4fcGdfk5/yjN1/wAxr/8A&#xA;JqLNb2p/eD+r+ku07I/uj/W/QGa3t0lpZXF3J/d28byv8kUsf1Zr4R4iB3uznLhiT3PmuaV5pnmk&#xA;NZJGLufEsanOtAoU8WTZt6z+XHnTT547Py6tu0DxQH05mYESSD4nAUDatWbrmk12kkLyXe7v+z9Z&#xA;E1jqtnoOat27sVYd+a//ACiMn/GeL9ZzP7N/vfg67tT+5+IeY+Rf+Uu0v/jOP1HNxrP7qXudHof7&#xA;6Pve/wCcw9a7FWE/m7/yiqf8xUf/ABF82PZn978HWdrf3Xxed/l5/wAplpn+u/8AybbNrrv7mTp+&#xA;z/76P46Pes5l6t2KuxV2KvGPzd/5SpP+YWP/AIk+dB2Z/dfF5vtb+9+Cffkt/vLqv+vD+p8xu1ec&#xA;fi5XY/KXwek5qHdOxV4d+aP/ACmV3/qQ/wDJtc6Ps7+5HxeY7T/vj8PuZl+TX/HCvf8AmK/5lrmB&#xA;2r9Y9zseyP7s+9n+at2zHfzD/wCUN1P/AFE/5OLmXof76Lh9of3Mvx1eJ6B/x3dO/wCYqH/k4udD&#xA;m+iXuLzOD+8j7w+js5N7J2KsY/Mv/lCdS/54/wDURHmZoP76Px+4uD2l/cS+H3h475W/5SbSP+Y2&#xA;3/5Orm+1H93L+qfued0v97H+sPvfROcq9g7FXhX5l/8AKbal/wA8f+oePOk0H9zH4/eXlu0v7+Xw&#xA;+4M6/Jz/AJRm6/5jX/5NRZre1P7wf1f0l2nZH90f636AyHznbaldeW72002IzXdyqxIgKr8LMA9S&#xA;xUfZrmLpZRjkBlyDmayMpYiIiyXkrfln5yWF5XsQoRSxX1YmYhRXYKzVJzefn8N1bz/8m5quvtDH&#xA;bG8nsryC8t24zW7rJGfdTXMqcRIEHkXEhMxkCOYfRWj6nBqml22oQf3VygcDwPRlP+q1RnK5cZhI&#xA;xPR7DDlE4iQ6ozK2xh35r/8AKIyf8Z4v1nM/s3+9+Dru1P7n4h5j5F/5S7S/+M4/Uc3Gs/upe50e&#xA;h/vo+97/AJzD1rsVYT+bv/KKp/zFR/8AEXzY9mf3vwdZ2t/dfF53+Xn/ACmWmf67/wDJts2uu/uZ&#xA;On7P/vo/jo96zmXq3Yq7FXYq8Y/N3/lKk/5hY/8AiT50HZn918Xm+1v734J9+S3+8uq/68P6nzG7&#xA;V5x+Lldj8pfB6Tmod07FXh35o/8AKZXf+pD/AMm1zo+zv7kfF5jtP++Pw+5mX5Nf8cK9/wCYr/mW&#xA;uYHav1j3Ox7I/uz72f5q3bMd/MP/AJQ3U/8AUT/k4uZeh/vouH2h/cy/HV4noH/Hd07/AJiof+Ti&#xA;50Ob6Je4vM4P7yPvD6Ozk3snYqxj8y/+UJ1L/nj/ANREeZmg/vo/H7i4PaX9xL4feHjvlb/lJtI/&#xA;5jbf/k6ub7Uf3cv6p+553S/3sf6w+99E5yr2DsVeFfmX/wAptqX/ADx/6h486TQf3Mfj95eW7S/v&#xA;5fD7gzr8nP8AlGbr/mNf/k1Fmt7U/vB/V/SXadkf3R/rfoDO81rtXYq+fvO1pa2nmvUoLUUhWbkF&#xA;2oC4DMBTsGYgZ1GkkZYok9zyWtgI5ZAcrek/lB63+GJS7kp9acRKeirwStPmxOajtOvE+Dueyb8I&#xA;+9nGa52jDvzX/wCURk/4zxfrOZ/Zv978HXdqf3PxDzHyL/yl2l/8Zx+o5uNZ/dS9zo9D/fR973/O&#xA;YetdirCfzd/5RVP+YqP/AIi+bHsz+9+DrO1v7r4vO/y8/wCUy0z/AF3/AOTbZtdd/cydP2f/AH0f&#xA;x0e9ZzL1bsVdirsVeMfm7/ylSf8AMLH/AMSfOg7M/uvi832t/e/BPvyW/wB5dV/14f1PmN2rzj8X&#xA;K7H5S+D0nNQ7p2KvDvzR/wCUyu/9SH/k2udH2d/cj4vMdp/3x+H3My/Jr/jhXv8AzFf8y1zA7V+s&#xA;e52PZH92fez/ADVu2Y7+Yf8Ayhup/wCon/Jxcy9D/fRcPtD+5l+OrxPQP+O7p3/MVD/ycXOhzfRL&#xA;3F5nB/eR94fR2cm9k7FWMfmX/wAoTqX/ADx/6iI8zNB/fR+P3Fwe0v7iXw+8PHfK3/KTaR/zG2//&#xA;ACdXN9qP7uX9U/c87pf72P8AWH3vonOVewdirwr8y/8AlNtS/wCeP/UPHnSaD+5j8fvLy3aX9/L4&#xA;fcGdfk5/yjN1/wAxr/8AJqLNb2p/eD+r+ku07I/uj/W/QGd5rXauxV87eaLn6z5k1SatQ91NxP8A&#xA;khyF8ewzqtPGscR5B4/Uy4skj5l7B+WVv6PkyyPeUyyH6ZGA/ADNF2hK8xei7NjWEfH72U5hOcw7&#xA;81/+URk/4zxfrOZ/Zv8Ae/B13an9z8Q8x8i/8pdpf/GcfqObjWf3Uvc6PQ/30fe9/wA5h612KsJ/&#xA;N3/lFU/5io/+Ivmx7M/vfg6ztb+6+Lzv8vP+Uy0z/Xf/AJNtm1139zJ0/Z/99H8dHvWcy9W7FXYq&#xA;7FXjH5u/8pUn/MLH/wASfOg7M/uvi832t/e/BPvyW/3l1X/Xh/U+Y3avOPxcrsflL4PSc1DunYq8&#xA;O/NH/lMrv/Uh/wCTa50fZ39yPi8x2n/fH4fczL8mv+OFe/8AMV/zLXMDtX6x7nY9kf3Z97P81btm&#xA;O/mH/wAobqf+on/Jxcy9D/fRcPtD+5l+OrxPQP8Aju6d/wAxUP8AycXOhzfRL3F5nB/eR94fR2cm&#xA;9k7FWMfmX/yhOpf88f8AqIjzM0H99H4/cXB7S/uJfD7w8d8rf8pNpH/Mbb/8nVzfaj+7l/VP3PO6&#xA;X+9j/WH3vonOVewdirwr8y/+U21L/nj/ANQ8edJoP7mPx+8vLdpf38vh9wZ1+Tn/ACjN1/zGv/ya&#xA;izW9qf3g/q/pLtOyP7o/1v0Bnea12q2SRY43kbZUBZj7AVOEC0E0LfM80rSyvK32pGLN8ya51wFC&#xA;niibNvoTylb/AFfyxpUXcWsTMPdkDH8TnL6mV5JHzeu0saxRHkE2yhyGHfmv/wAojJ/xni/Wcz+z&#xA;f734Ou7U/ufiHmPkX/lLtL/4zj9Rzcaz+6l7nR6H++j73v8AnMPWuxVhP5u/8oqn/MVH/wARfNj2&#xA;Z/e/B1na3918Xnf5ef8AKZaZ/rv/AMm2za67+5k6fs/++j+Oj3rOZerdirsVdirxj83f+UqT/mFj&#xA;/wCJPnQdmf3Xxeb7W/vfgn35Lf7y6r/rw/qfMbtXnH4uV2Pyl8HpOah3TsVeHfmj/wApld/6kP8A&#xA;ybXOj7O/uR8XmO0/74/D7mZfk1/xwr3/AJiv+Za5gdq/WPc7Hsj+7PvZ/mrdsx38w/8AlDdT/wBR&#xA;P+Ti5l6H++i4faH9zL8dXiegf8d3Tv8AmKh/5OLnQ5vol7i8zg/vI+8Po7OTeydirGPzL/5QnUv+&#xA;eP8A1ER5maD++j8fuLg9pf3Evh94eO+Vv+Um0j/mNt/+Tq5vtR/dy/qn7nndL/ex/rD730TnKvYO&#xA;xV4V+Zf/ACm2pf8APH/qHjzpNB/cx+P3l5btL+/l8PuDOvyc/wCUZuv+Y1/+TUWa3tT+8H9X9Jdp&#xA;2R/dH+t+gM7zWu1Qeshzo98ENHNvKFPgeBplmL6x72vN9B9xfN2dY8Y+ldN4/o614CiejHxHgOIp&#xA;nJZPqPve0x/SPciMgzYd+a//ACiMn/GeL9ZzP7N/vfg67tT+5+IeY+Rf+Uu0v/jOP1HNxrP7qXud&#xA;Hof76Pve/wCcw9a7FWE/m7/yiqf8xUf/ABF82PZn978HWdrf3Xxed/l5/wAplpn+u/8AybbNrrv7&#xA;mTp+z/76P46Pes5l6t2KvJ/+Vz6n/wBW6D/g3zd/yVH+cXQfyxL+aHf8rn1P/q3Qf8G+P8lR/nFf&#xA;5Yl/NDEvNPmOfzBqYv5oVgcRrFwQkiikmu/+tmdp8AxR4QbdfqdQcsuIimefkt/vLqv+vD+p81va&#xA;vOPxdr2Pyl8HpOah3TsVeHfmj/ymV3/qQ/8AJtc6Ps7+5HxeY7T/AL4/D7lnlPz7d+XLKa1gtY51&#xA;mk9Us7MCDxC02+WHU6MZSCTTHS644YkAXaef8rn1P/q3Qf8ABvmN/JUf5xcr+WJfzQgNd/NC/wBX&#xA;0m402SyiiS4AVpFZiRRg21flluHs+MJCV8mrP2nLJAxIG7GNA/47unf8xUP/ACcXMzN9EvcXBwf3&#xA;kfeH0dnJvZOxVjH5l/8AKE6l/wA8f+oiPMzQf30fj9xcHtL+4l8PvDxLTb1rHUbW9RQ72s0cyodg&#xA;TGwYA/OmdFkhxRMe8PM458MhLuNs8/5XPqf/AFboP+DfNZ/JUf5xdr/LEv5od/yufU/+rdB/wb4/&#xA;yVH+cV/liX80MM8w61LrWsXGpyxrDJccKxqSQOCKnU/6ubDBiGOAiOjrdRmOSZker1D8nP8AlGbr&#xA;/mNf/k1Fmm7U/vB/V/SXedkf3R/rfoDO81rtVG+QPZXCHo0bg/IqRkoHcMZi4l80Z1zxT0C1/ODU&#xA;7e1hg+oQt6SKnIswrxAFc1kuy4kk2XbR7WkABwhV/wCVz6n/ANW6D/g3yP8AJUf5xZfyxL+aEq8z&#xA;fmPe69pbafNZxQozq/NGYn4fnl+n0IxS4gWjU9oSyw4SKS3yL/yl2l/8Zx+o5brP7qXuaND/AH0f&#xA;e9/zmHrXYqwn83f+UVT/AJio/wDiL5sezP734Os7W/uvi8n0LVpNI1a31KOMSvbkssbEgGqld6fP&#xA;N3mxccTHvdBgynHMSHRm3/K59T/6t0H/AAb5rv5Kj/OLs/5Yl/NDv+Vz6n/1boP+DfH+So/ziv8A&#xA;LEv5oedZtXTs/svyi1G7sre6XUIVW4jSUKUaoDqGp+OayfacYkijs7aHZMpRB4huxjzT5cn8v6mL&#xA;CaZZ3May80BAoxIpv/q5mafOMseICnB1OnOKXCTbPPyW/wB5dV/14f1Pmt7V5x+Ltex+Uvg9JzUO&#xA;6dirw780f+Uyu/8AUh/5NrnR9nf3I+LzHaf98fh9yzyn5Cu/MdlNdQXUcCwyekVdWJJ4hq7fPDqd&#xA;YMRAItjpdCc0SQapPP8AlTGp/wDVxg/4B8xv5Vj/ADS5X8jy/nBAa7+V9/pGk3GpSXsUqW4DNGqs&#xA;CasF2r88tw9oRnIRrm1Z+zJY4GRI2YxoH/Hd07/mKh/5OLmZm+iXuLg4P7yPvD6Ozk3snYqxj8y/&#xA;+UJ1L/nj/wBREeZmg/vo/H7i4PaX9xL4feHiWm2TX2o2tkjBHupo4Vc7gGRgoJ+Vc6LJPhiZdweZ&#xA;xw4pCPeaZ5/ypjU/+rjB/wAA+az+VY/zS7X+R5fzg7/lTGp/9XGD/gHx/lWP80r/ACPL+cGGeYdF&#xA;l0XWLjTJZFmkt+FZFBAPNFfof9bNhgyjJASHV1uownHMxPR6h+Tn/KM3X/Ma/wDyaizTdqf3g/q/&#xA;pLvOyP7o/wBb9AZ3mtdq4gEEEVB6jFXzGylSVIoQaEe+dg8QzrS/ynv9Q021vo9QhVLqJJVUo1Rz&#xA;UGh+Wa3J2lGMjGjs7XF2XKcRISG4RX/KmNT/AOrjB/wD5D+VY/zSz/keX84JV5m/Li90HS21Ca8i&#xA;mRXVOCKwPxfPL9PrhllwgNGp7PlihxE2lvkX/lLtL/4zj9Ry3Wf3Uvc0aH++j73v+cw9a7FWE/m7&#xA;/wAoqn/MVH/xF82PZn978HWdrf3XxeT6FpMmr6tb6bHIInuCVWRgSBRS29Plm7zZeCJl3OgwYjkm&#xA;Ijqy3Uvyl1Gx066vXv4XS1hkmZArAkRqWIHzpmDj7SjKQjR3LsMnZUoxMuIbC2B5snVOxV9FaDc2&#xA;w0PTgZUBFrDUch/vsZyuaJ45e8vYYJDw479A8o/NiaOXzX8BDBLeNSQQRWrHt883fZorF8XQ9qG8&#xA;vwZH+S6EWWqP2aSJR9Csf45idqneLmdjj0y+D0fNS7l2KvDvzR/5TK7/ANSH/k2udH2d/cj4vMdp&#xA;/wB8fh9zL/yemhj0O9Duqk3OwYgf7rXxzA7UBMx7nYdkEDGfez361a/7+T/gh/XNbwnudrxDvY9+&#xA;YNxbt5O1JVlRmKJQBgT/AHi5laKJ8WLia+Q8GTxfQP8Aju6d/wAxUP8AycXOgzfRL3F5rB/eR94e&#xA;hfnPLLH+h+DslfrNeJI/314ZquygDxfD9Lt+2CRw/H9CO/J2SR9DvS7FiLnYsSf91r45X2oKmPc2&#xA;9kG8Z96b/mX/AMoTqX/PH/qIjyjQf30fj9xcjtL+4l8PvDxzyuQPMukkmgF7bkk/8ZVzfaj+7l/V&#xA;P3PO6b+9j/WH3voX61a/7+T/AIIf1zl+E9z13EO931q1/wB/J/wQ/rjwnuXiHe8N/MiSOTzpqLxs&#xA;GWsIDDcbQID+OdHoBWGPx+95ftE3nl8PuDPfydBHli5JFAb2Qj3/AHUQzWdqf3g/q/pLtuyP7o/1&#xA;v0BnWa12jsVfNN+hjvrhCalJXWvyYjOugbiHi5ipF7v5LvLc+VNL5SIpFuilSwr8Ip/DOa1cT4sv&#xA;e9To5jwo+5OvrVr/AL+T/gh/XKOE9zk8Q72IfmpPA/lKRUkVm9aLYEE9Tmd2cD4vwdf2pIeD8Q80&#xA;8i/8pdpf/GcfqObfWf3Uvc6TQ/30fe9/zmHrXYqwn83f+UVT/mKj/wCIvmx7M/vfg6ztb+6+Lzr8&#xA;vmVfOOmsxCqHepOw/u2za63+6k6fQH99H8dHsfmi5tz5a1YCVCTZXAADD/fTZoNPE+JH+sPvej1M&#xA;h4Uv6p+589Z1LyDsVdirsVes/kx/xzNR/wCM6f8AEM0nav1R9zv+x/pl73omap3DsVeHfmj/AMpl&#xA;d/6kP/Jtc6Ps7+5HxeY7T/vj8PuYnma692KuxVH6B/x3dO/5iof+Ti5Xm+iXuLbg/vI+8PQPzr/6&#xA;U3/Rz/zKzV9k/wAXw/S7ftn+D4/oR/5Nf8cK9/5iv+Za5X2r9Y9zb2R/dn3px+Zf/KE6l/zx/wCo&#xA;iPMfQf30fj9xcjtL+4l8PvDwnOkeWdirsVdir2f8ov8AlFX/AOYqT/iKZoO0/wC9+D0nZP8AdfFm&#xA;2a52bsVfN+toE1q/RfsrczAfISHOswn0D3B43MKnL3lBZY1OxV2Kp95F/wCUu0v/AIzj9RzG1n91&#xA;L3OVof76Pve/5zD1rsVYT+bv/KKp/wAxUf8AxF82PZn978HWdrf3XxeMZv3m3Yq7FX0f+gNC/wCr&#xA;da/8iY/+ac5Txp/zj83svAx/zR8nfoDQv+rda/8AImP/AJpx8af84/NfAx/zR8njv5n2ttbeapIr&#xA;aJIYhDGeEahFqR4Cmb7s+ROKz3vO9pREctAVsyz8mP8Ajmaj/wAZ0/4hmD2r9Ufc5/Y/0y970TNU&#xA;7h2KvDvzR/5TK7/1If8Ak2udH2d/cj4vMdp/3x+H3Mp/KTTdOu9FvHurWGd1uaK0sauQPTU0BYHM&#xA;LtPJKMxRI2c7srHGUDYB3Z1+gNC/6t1r/wAiY/8AmnNd40/5x+btPAx/zR8mP+ftI0e38o6jNFZW&#xA;8MionCRIkVgTIo2IA8cydFlmcsQSXE12KAwyIAHw83j+gAnXdNA3Juof+Ti5vs30S9xedwf3kfeH&#xA;oH51/wDSm/6Of+ZWavsn+L4fpdv2z/B8f0I/8mv+OFe/8xX/ADLXK+1frHubeyP7s+9OPzL/AOUJ&#xA;1L/nj/1ER5j6D++j8fuLkdpf3Evh94eN+Wo45PMelRyKHje8t1dGFQQZVBBB6g5v9Qaxy9x+55zT&#xA;C8kQf5w+977+gNC/6t1r/wAiY/8AmnOZ8af84/N6zwMf80fJ36A0L/q3Wv8AyJj/AOacfGn/ADj8&#xA;18DH/NHyeH+fIIYPN2oxQRrFErrxjQBVH7tTsBtnRaMk4okvMa6IGaQD0j8ov+UVf/mKk/4imant&#xA;P+9+Dueyf7r4s2zXOzdir5381KV8z6sCKf6ZcED2MrEZ1Wm/u4/1Q8fqh+9l/WP3vVfy50rSLnyf&#xA;YyzWcE01ZhJJJEjMSJnpUkVO1M0uuyTGUgE9Pud92fihLCCQCd+nmyX9AaF/1brX/kTH/wA05ieN&#xA;P+cfm5vgY/5o+TEvzP0rS7byrJLbWcEMomjAeONEahJ7gDM3s/JI5aJPJ1/aWKMcVgAbvO/Iv/KX&#xA;aX/xnH6jm11n91L3On0P99H3vUvzI80fobRTBbvxv74GOEg/EiftyfQNh7n2zTaDT+JOz9Id72jq&#xA;fDhQ+qS78u/NX6c0cRXD11GzAS4r1df2ZPp6H3wa7TeHOx9JT2fqvFhR+oIT83f+UVT/AJio/wDi&#xA;L5Z2Z/e/Br7W/uvi838hwQz+btOinjWWJnblG4DKf3bHcHbNtrCRikQ6bQxBzRBe4foDQv8Aq3Wv&#xA;/ImP/mnOd8af84/N6fwMf80fJ36A0L/q3Wv/ACJj/wCacfGn/OPzXwMf80fJHZU2uxV4n+a//KXS&#xA;f8YIv1HOh7N/uvi8z2p/ffAKnkLzzp/ly0uoLq3mmaeRXUxcaABab8iMGs0cspBBGydDrY4QQQTb&#xA;Kf8Alcuhf8sV1/yT/wCasw/5Kn3hz/5Xx9xd/wArl0L/AJYrr/kn/wA1Y/yVPvC/yvj7i8884a5b&#xA;65r02o28bxRSqihJKchwQKehI7ZtNLhOOAiXT6vOMuQyD0P8mv8AjhXv/MV/zLXNX2r9Y9zuOyP7&#xA;s+9n+at2zGPzL/5QnUv+eP8A1ER5maD++j8fuLg9pf3Evh94eK6Pex2Or2N7IpaO1uIpnVepEbhi&#xA;BXvtnQ5YcUCO8PNYZ8MxI9CGR+f/ADlY+ZPqH1WCWH6p6vP1eO/qcKU4k/yZiaLSyxXZ505mv1kc&#xA;3DQIq/0InyH5807y7p1xa3VvNM803qq0XGgHELQ8iPDIazRyyyBBHJs0OujhiQQeaO82/mXpOteX&#xA;7rTILWeOW49Pi8nDiOEiua0YnouV6bQSx5BIkbNuq7ShkxmIB3/Ww3yt/wApNpH/ADG2/wDydXM/&#xA;Uf3cv6p+51ul/vY/1h976JzlXsHYq8F/MP8A5TLU/wDXT/k2udNof7mLynaH99L8dE68kfmFpnl/&#xA;Rmsbm2mlkMzS8o+HGjBRT4mH8uY2r0Uss+IEcnK0WvjihwkHmyH/AJXLoX/LFdf8k/8AmrMb+Sp9&#xA;4cv+V8fcXf8AK5dC/wCWK6/5J/8ANWP8lT7wv8r4+4vMNe1CLUdZvb6JWSO5meVFenIBjWhoTm4w&#xA;wMYCJ6B0efIJzMh1L2D8q35eT4BSnCWVfn8df45oe0R+9Pwei7LP7ke8suzBdgwr83CR5UUA0BuY&#xA;wff4WObDsz+9+DrO1f7r4vK/LOqW+la7Z6hcRtLDbuWZEpyPwkClSB1ObrUYzOBiOrotNlGPIJHo&#xA;v80+YJ9e1ma/kBWM/BbxH9iJfsj59z74NPgGOAinVZzlmZLfLOv3GhaxDqENWVTxnirTnG32l/iP&#xA;fDqMIyQMSjTZzimJBlHnf8wtM8waMtjbW00UgmWXlJw40UMKfCx/mzC0milinxEjk5+t18csOEA8&#xA;0l/Lz/lMtM/13/5NtmTrv7mTi9n/AN9H8dHvWcy9W7FXYq7FWCfmF5Butbnj1LTWX64iCOWBzxDq&#xA;pJUq38wrTftmy0OtGMcMuTqtfoTlPFHmwn/lV3nL/lkT/kdH/wA1Zsf5Rw9/2Ot/kzN3faHf8qu8&#xA;5f8ALIn/ACOj/wCasf5Rw9/2L/Jmbu+0O/5Vd5y/5ZE/5HR/81Y/yjh7/sX+TM3d9oXL+VvnIsAb&#xA;aNQTuxmjoPuJOD+UcXf9i/yZm7vteqeT/LSeXtGWy5iWd2MtxKNgXYAfDXsAAM02q1Hizvo73Sab&#xA;wYcPVO8xnKQWtaVBq2lXOnTkrHcpxLDcqeqsPkwByzFkMJCQ6NWbEMkDE9XkFz+VPm2KdkiiiuIw&#xA;fhlWRVBHyfiRm9j2liI32eel2XmB2oqX/KrvOX/LIn/I6P8A5qyX8o4e/wCxH8mZu77Q7/lV3nL/&#xA;AJZE/wCR0f8AzVj/ACjh7/sX+TM3d9od/wAqu85f8sif8jo/+asf5Rw9/wBi/wAmZu77QyTyR+Wm&#xA;p2WrRalq/CJbU84bdGDszj7JYrsAOvXMTV6+Mo8MOrmaLs2UZiU+j03NO7t2KvOvP35dX+qak2q6&#xA;SUeWYKLm3chDyUBQ6k7bgbg5tdFrowjwydPruz5Tlxw682J/8qu85f8ALIn/ACOj/wCaszv5Rw9/&#xA;2OB/Jmbu+0O/5Vd5y/5ZE/5HR/8ANWP8o4e/7F/kzN3faHf8qu85f8sif8jo/wDmrH+UcPf9i/yZ&#xA;m7vtC+L8q/ODyqjwRRKTQyNKhAHiQpY/cMB7RxVzSOy8xPL7XrflvQ4ND0e306JufpAmSWlObsas&#xA;1Pn0zR58xyTMi7/T4BigIhM8pb0q8z6DFruiz6c7+m0lGil68XU1U08Ox9su0+Y45iTRqcAywMXk&#xA;0v5V+cEkZFgilUGgkWVAD7jkVP3jN4O0cXf9joD2XmB5D5q+l/lV5kk1C3S/hWGyLj6xIsiMQg3I&#xA;ABJqegyOTtHGInhNlli7LymQ4hUVTW/yq15NUnGlQrNYFuUDNIisFO/EhjX4elcji7RgYjiPqTm7&#xA;LyCR4BcUD/yq7zl/yyJ/yOj/AOast/lHD3/Y1/yZm7vtDLvIH5d32k6iNV1Uos8Ssttbo3IgsOJZ&#xA;mG32SQAMwdbrozjwx5OfoOz5Y5cc+fR6Hmqdw7FX/9k=</xmpGImg:image>
               </rdf:li>
            </rdf:Alt>
         </xmp:Thumbnails>
         <xmpTPg:MaxPageSize rdf:parseType="Resource">
            <stDim:w>300.000000</stDim:w>
            <stDim:h>300.000000</stDim:h>
            <stDim:unit>Pixels</stDim:unit>
         </xmpTPg:MaxPageSize>
         <xmpTPg:NPages>1</xmpTPg:NPages>
         <xmpTPg:HasVisibleTransparency>False</xmpTPg:HasVisibleTransparency>
         <xmpTPg:HasVisibleOverprint>False</xmpTPg:HasVisibleOverprint>
         <xmpTPg:PlateNames>
            <rdf:Seq>
               <rdf:li>Cyan</rdf:li>
               <rdf:li>Magenta</rdf:li>
               <rdf:li>Yellow</rdf:li>
            </rdf:Seq>
         </xmpTPg:PlateNames>
         <xmpTPg:SwatchGroups>
            <rdf:Seq>
               <rdf:li rdf:parseType="Resource">
                  <xmpG:groupName>Default Swatch Group</xmpG:groupName>
                  <xmpG:groupType>0</xmpG:groupType>
               </rdf:li>
            </rdf:Seq>
         </xmpTPg:SwatchGroups>
         <illustrator:IsFileSavedViaInstantSave>False</illustrator:IsFileSavedViaInstantSave>
         <dc:format>image/svg+xml</dc:format>
         <xmpMM:InstanceID>xmp.iid:623458d6-8231-453a-9a92-6d2a4bf92f5c</xmpMM:InstanceID>
         <xmpMM:DocumentID>xmp.did:b0af0ffb-35c1-47e6-8702-2afd2947a382</xmpMM:DocumentID>
         <xmpMM:OriginalDocumentID>xmp.did:1ae11d0b-3ff8-4507-8bb4-c2f34a649fa6</xmpMM:OriginalDocumentID>
         <xmpMM:DerivedFrom rdf:parseType="Resource">
            <stRef:instanceID>xmp.iid:1ae11d0b-3ff8-4507-8bb4-c2f34a649fa6</stRef:instanceID>
            <stRef:documentID>xmp.did:1ae11d0b-3ff8-4507-8bb4-c2f34a649fa6</stRef:documentID>
            <stRef:originalDocumentID>xmp.did:1ae11d0b-3ff8-4507-8bb4-c2f34a649fa6</stRef:originalDocumentID>
         </xmpMM:DerivedFrom>
         <xmpMM:History>
            <rdf:Seq>
               <rdf:li rdf:parseType="Resource">
                  <stEvt:action>saved</stEvt:action>
                  <stEvt:instanceID>xmp.iid:b0af0ffb-35c1-47e6-8702-2afd2947a382</stEvt:instanceID>
                  <stEvt:when>2025-07-25T15:27:11-07:00</stEvt:when>
                  <stEvt:softwareAgent>Adobe Illustrator 29.6 (Macintosh)</stEvt:softwareAgent>
                  <stEvt:changed>/</stEvt:changed>
               </rdf:li>
            </rdf:Seq>
         </xmpMM:History>
      </rdf:Description>
   </rdf:RDF>
</x:xmpmeta>
                                                                                                    
                                                                                                    
                                                                                                    
                                                                                                    
                                                                                                    
                                                                                                    
                                                                                                    
                                                                                                    
                                                                                                    
                                                                                                    
                                                                                                    
                                                                                                    
                                                                                                    
                                                                                                    
                                                                                                    
                                                                                                    
                                                                                                    
                                                                                                    
                                                                                                    
                                                                                                    
                           
<?xpacket end="w"?>
  </metadata>
</svg>